<svg width="16em" height="16em" viewBox="0 0 203.2 203.2" xmlns="http://www.w3.org/2000/svg"><g transform="matrix(.20387 .2137 -.20387 .2137 128.46 -10.68)"><path d="m271.76 703.73-211.3-314.83 276.27-58.724-64.977 373.55" fill="#d5b360"/><path d="m271.76 703.73-211.3-314.83 276.27-58.724z" fill-opacity="0" stroke="#3e3632" stroke-linecap="round" stroke-linejoin="round" stroke-width="11"/><path d="m215.67 405.24 65.519 63.54m-76.56 6.867 63.54-65.519m-45.433 88.23 63.54-65.519m-84.739 15.245 65.519 63.541" fill-opacity="0" stroke="#3e3632" stroke-linecap="round" stroke-linejoin="round" stroke-width="8"/><path d="m328.56 236.75c3.897-10.97 5.02-23.007 2.554-34.554-4.783-22.409-21.817-36.657-41.676-37.89 1.346-7.609 1.314-15.557-0.369-23.415-5.828-27.213-28.979-44.343-53.839-40.513-6.532-24.271-27.356-39.494-49.689-38.994-3.032-7.637-17.489-39.799-49.025-49.658-22.371-6.975-82.684 7.057-82.687 7.05-3e-3 -0.012 25.332 8.591 40.719 33.116 4.867 7.753 7.006 17.012 7.502 26.468-1.321 0.266-2.643 0.532-3.964 0.797-25.644 5.213-42.087 30.802-37.683 58.993-24.66 6.33-39.817 31.39-34.022 58.86 1.657 7.863 4.834 15.002 9.158 21.406-17.641 9.202-27.421 29.078-22.676 51.496 2.444 11.551 8.358 22.059 16.38 30.495-14.956 8.922-22.819 26.303-18.529 46.499 5.914 27.873 37.743 48.009 60.763 52.573 22.953 4.707 75.488 4.761 133.59-7.818 58.266-11.895 111.3-34.354 125.22-47.197 14.132-12.498 40.091-44.813 34.124-72.753-4.295-20.195-18.551-32.893-35.844-34.961" fill="#fffffe"/><path d="m328.56 236.75c3.897-10.97 5.02-23.007 2.554-34.554-4.783-22.409-21.817-36.657-41.676-37.89 1.346-7.609 1.314-15.557-0.369-23.415-5.828-27.213-28.979-44.343-53.839-40.513-6.532-24.271-27.356-39.494-49.689-38.994-3.032-7.637-17.489-39.799-49.025-49.658-22.371-6.975-82.684 7.057-82.687 7.05-3e-3 -0.012 25.332 8.591 40.719 33.116 4.867 7.753 7.006 17.012 7.502 26.468-1.321 0.266-2.643 0.532-3.964 0.797-25.644 5.213-42.087 30.802-37.683 58.993-24.66 6.33-39.817 31.39-34.022 58.86 1.657 7.863 4.834 15.002 9.158 21.406-17.641 9.202-27.421 29.078-22.676 51.496 2.444 11.551 8.358 22.059 16.38 30.495-14.956 8.922-22.819 26.303-18.529 46.499 5.914 27.873 37.743 48.009 60.763 52.573 22.953 4.707 75.488 4.761 133.59-7.818 58.266-11.895 111.3-34.354 125.22-47.197 14.132-12.498 40.091-44.813 34.124-72.753-4.295-20.195-18.551-32.893-35.844-34.961z" fill-opacity="0" stroke="#3e3632" stroke-linecap="round" stroke-linejoin="round" stroke-width="11"/><path d="m184.49 72.517c-0.108-0.604-13.1 42.635-107.01 66.574m149.56-23.297c-0.017 0.146-5.601 15.147-29.231 36.635-23.687 21.079-65.42 48.646-139.02 64.457m222.03-37.656c-0.109 0.174-8.437 23.849-40.838 53.951-32.5 29.173-89.075 64.773-187.98 67.361m265.38-48.424c-0.048-0.057-11.438 19.506-34.151 44.665-22.74 24.947-56.804 55.49-102.83 72.474m-84.823-340.9c0 3e-3 26.33 1.97 34.616 40.955" fill-opacity="0" stroke="#3e3632" stroke-linecap="round" stroke-linejoin="round" stroke-width="9"/></g></svg>
